<?xml version="1.0" encoding="UTF-8"?> <svg xmlns="http://www.w3.org/2000/svg" xmlns:xlink="http://www.w3.org/1999/xlink" width="443px" height="419px" viewBox="0 0 443 419"><defs><polygon id="path-1" points="0.831347283 0.513154598 384.386285 0.513154598 384.386285 14.4482759 0.831347283 14.4482759"></polygon><polygon id="path-3" points="0 419 443 419 443 0.303413793 0 0.303413793"></polygon></defs><g id="Page-1" stroke="none" stroke-width="1" fill="none" fill-rule="evenodd"><g id="Mensajes-de-texto" transform="translate(-76.000000, -2104.000000)"><g id="Group-152" transform="translate(76.000000, 2104.000000)"><g id="Group-42"><path d="M443,379.578 C443,375.729942 343.830598,372.610319 221.5,372.610319 C99.1681984,372.610319 0,375.729942 0,379.578 C0,383.424853 99.1681984,386.545681 221.5,386.545681 C343.830598,386.545681 443,383.424853 443,379.578" id="Fill-1" fill="#CECECE"></path><g id="Group-5" transform="translate(28.891304, 404.551724)"><mask id="mask-2" fill="white"><use xlink:href="#path-1"></use></mask><g id="Clip-4"></g><path d="M384.386285,7.48083563 C384.386285,3.63277816 298.52494,0.513154598 192.608214,0.513154598 C86.6938962,0.513154598 0.831347283,3.63277816 0.831347283,7.48083563 C0.831347283,11.3288931 86.6938962,14.4485167 192.608214,14.4485167 C298.52494,14.4485167 384.386285,11.3288931 384.386285,7.48083563" id="Fill-3" fill="#CECECE" mask="url(#mask-2)"></path></g><path d="M275.631229,399.412713 L116.713406,399.412713 L116.713406,411.805722 L295.475944,411.805722 L291.192808,406.683808 C287.337023,402.076012 281.638213,399.412713 275.631229,399.412713" id="Fill-6" fill="#FFFFFF"></path><path d="M127.463379,399.412713 L82.4519304,399.412713 C80.9856967,399.412713 79.796338,400.602288 79.796338,402.068788 L79.796338,409.149647 C79.796338,410.617351 80.9856967,411.805722 82.4519304,411.805722 L147.308093,411.805722 L143.023754,406.683808 C139.169172,402.076012 133.470362,399.412713 127.463379,399.412713" id="Fill-8" fill="#B8F9FF"></path><path d="M109.823071,394.355576 L99.5823071,394.355576 C98.2208043,394.355576 97.1169158,395.459665 97.1169158,396.821415 L97.1169158,399.412472 L112.288462,399.412472 L112.288462,396.821415 C112.288462,395.459665 111.184573,394.355576 109.823071,394.355576" id="Fill-10" fill="#2A3958"></path><path d="M131.569074,394.355576 L121.32831,394.355576 C119.966808,394.355576 118.862919,395.459665 118.862919,396.821415 L118.862919,399.412472 L134.034465,399.412472 L134.034465,396.821415 C134.034465,395.459665 132.930577,394.355576 131.569074,394.355576" id="Fill-12" fill="#2A3958"></path><path d="M153.315799,394.355576 L143.075036,394.355576 C141.713533,394.355576 140.609645,395.459665 140.609645,396.821415 L140.609645,399.412472 L155.781191,399.412472 L155.781191,396.821415 C155.781191,395.459665 154.677302,394.355576 153.315799,394.355576" id="Fill-14" fill="#2A3958"></path><path d="M175.061803,394.355576 L164.821039,394.355576 C163.459536,394.355576 162.355648,395.459665 162.355648,396.821415 L162.355648,399.412472 L177.527194,399.412472 L177.527194,396.821415 C177.527194,395.459665 176.423305,394.355576 175.061803,394.355576" id="Fill-16" fill="#2A3958"></path><path d="M218.554532,394.355576 L208.313768,394.355576 C206.952265,394.355576 205.848377,395.459665 205.848377,396.821415 L205.848377,399.412472 L221.019923,399.412472 L221.019923,396.821415 C221.019923,395.459665 219.916034,394.355576 218.554532,394.355576" id="Fill-18" fill="#2A3958"></path><path d="M240.301257,394.355576 L230.060493,394.355576 C228.698991,394.355576 227.595102,395.459665 227.595102,396.821415 L227.595102,399.412472 L242.766648,399.412472 L242.766648,396.821415 C242.766648,395.459665 241.66276,394.355576 240.301257,394.355576" id="Fill-20" fill="#2A3958"></path><path d="M262.04726,394.355576 L251.806497,394.355576 C250.444994,394.355576 249.341105,395.459665 249.341105,396.821415 L249.341105,399.412472 L264.512652,399.412472 L264.512652,396.821415 C264.512652,395.459665 263.408763,394.355576 262.04726,394.355576" id="Fill-22" fill="#2A3958"></path><path d="M113.11054,394.355576 L102.869776,394.355576 C101.508274,394.355576 100.404385,395.459665 100.404385,396.821415 L100.404385,399.412472 L115.575931,399.412472 L115.575931,396.821415 C115.575931,395.459665 114.472043,394.355576 113.11054,394.355576" id="Fill-24" fill="#3A5799"></path><path d="M134.856664,394.355576 L124.6159,394.355576 C123.254397,394.355576 122.150509,395.459665 122.150509,396.821415 L122.150509,399.412472 L137.322055,399.412472 L137.322055,396.821415 C137.322055,395.459665 136.218166,394.355576 134.856664,394.355576" id="Fill-26" fill="#3A5799"></path><path d="M156.603269,394.355576 L146.362505,394.355576 C145.001002,394.355576 143.897114,395.459665 143.897114,396.821415 L143.897114,399.412472 L159.06866,399.412472 L159.06866,396.821415 C159.06866,395.459665 157.964771,394.355576 156.603269,394.355576" id="Fill-28" fill="#3A5799"></path><path d="M200.095998,394.355576 L168.108508,394.355576 C166.747006,394.355576 165.643117,395.459665 165.643117,396.821415 L165.643117,399.412472 L202.561389,399.412472 L202.561389,396.821415 C202.561389,395.459665 201.4575,394.355576 200.095998,394.355576" id="Fill-30" fill="#3A5799"></path><path d="M221.842121,394.355576 L211.601358,394.355576 C210.239855,394.355576 209.135966,395.459665 209.135966,396.821415 L209.135966,399.412472 L224.307513,399.412472 L224.307513,396.821415 C224.307513,395.459665 223.203624,394.355576 221.842121,394.355576" id="Fill-32" fill="#3A5799"></path><path d="M243.588124,394.355576 L233.347361,394.355576 C231.985858,394.355576 230.88197,395.459665 230.88197,396.821415 L230.88197,399.412472 L246.053516,399.412472 L246.053516,396.821415 C246.053516,395.459665 244.950831,394.355576 243.588124,394.355576" id="Fill-34" fill="#3A5799"></path><path d="M265.335452,394.355576 L255.094688,394.355576 C253.731982,394.355576 252.628093,395.459665 252.628093,396.821415 L252.628093,399.412472 L267.800843,399.412472 L267.800843,396.821415 C267.800843,395.459665 266.696955,394.355576 265.335452,394.355576" id="Fill-36" fill="#3A5799"></path><path d="M117.105244,24.3089833 L93.2434345,24.3089833 C86.016997,24.3089833 80.1580812,30.1689632 80.1580812,37.3967132 L80.1580812,54.3337046 C80.1580812,60.064854 83.8477416,64.9230868 88.9759481,66.6954086 L89.394872,75.7725379 L101.151225,67.4214345 L117.105244,67.4214345 C124.331682,67.4214345 130.190598,61.5614546 130.190598,54.3337046 L130.190598,37.3967132 C130.190598,30.1689632 124.331682,24.3089833 117.105244,24.3089833" id="Fill-38" fill="#B7F8FE"></path><path d="M145.930701,0.303775 L114.450013,0.303775 C104.915883,0.303775 97.1874587,8.03360259 97.1874587,17.5706687 L97.1874587,39.9149273 C97.1874587,49.4507894 104.915883,57.181821 114.450013,57.181821 L135.498532,57.181821 L151.008347,68.1986313 L151.55969,56.2234187 C158.326274,53.8864101 163.193255,47.4761917 163.193255,39.9149273 L163.193255,17.5706687 C163.193255,8.03360259 155.464831,0.303775 145.930701,0.303775" id="Fill-40" fill="#E5E5E5"></path></g><text id="&lt;-/-&gt;" font-family="Montserrat-ExtraBold, Montserrat" font-size="22.7399" font-weight="600" fill="#FB7836"><tspan x="105" y="27">&lt; / &gt;</tspan></text><g id="Group-151"><polygon id="Fill-43" fill="#98EDF5" points="250.149099 369.528381 195.632411 369.528381 203.046642 315.0042 242.734868 315.0042"></polygon><path d="M155.919749,379.578 L156.904461,378.060931 C160.36299,372.739149 166.278485,369.52802 172.623738,369.52802 L266.388058,369.52802 C272.972868,369.52802 279.076156,372.98477 282.463662,378.632842 L283.030654,379.578 L155.919749,379.578 Z" id="Fill-45" fill="#B8F9FF"></path><path d="M383.676161,96.4568101 L383.676161,307.317356 C383.676161,311.568761 380.234484,314.999023 375.995889,314.999023 L55.8080084,314.999023 C51.5585791,314.999023 48.1156986,311.568761 48.1156986,307.317356 L48.1156986,96.4568101 C48.1156986,96.2641664 48.1156986,96.0715227 48.1277367,95.878879 C48.3083073,90.0514078 53.0151823,85.3436779 58.8415954,85.1630744 C59.0342041,85.1510342 59.2268128,85.1510342 59.4194215,85.1510342 L372.601161,85.1510342 C372.721541,85.1510342 372.841921,85.1630744 372.963506,85.1630744 C378.788715,85.3436779 383.483552,90.0393675 383.664123,95.878879 C383.676161,96.0715227 383.676161,96.2641664 383.676161,96.4568101" id="Fill-47" fill="#B8F9FF"></path><path d="M48.1215973,96.455606 L48.1215973,272.058747 L383.679652,272.058747 L383.679652,96.455606 C383.679652,90.2151549 378.62247,85.1570543 372.383152,85.1570543 L59.4180973,85.1570543 C53.1787793,85.1570543 48.1215973,90.2151549 48.1215973,96.455606" id="Fill-49" fill="#202D45"></path><path d="M394.884301,96.1076434 L394.884301,307.317356 C394.884301,311.568761 391.441421,314.999023 387.190788,314.999023 L67.0041111,314.999023 C62.7667198,314.999023 59.3238394,311.568761 59.3238394,307.317356 L59.3238394,96.1076434 C59.3238394,95.9631606 59.3238394,95.8186779 59.3358774,95.6741951 C59.6247905,90.0032468 64.1631329,85.4520399 69.8318476,85.1630744 C69.9775079,85.1510342 70.1219644,85.1510342 70.2664209,85.1510342 L383.928478,85.1510342 C384.074138,85.1510342 384.218595,85.1510342 384.363051,85.1630744 C390.043804,85.4520399 394.58335,89.9912066 394.87106,95.6741951 C394.884301,95.8186779 394.884301,95.9631606 394.884301,96.1076434" id="Fill-51" fill="#FFFFFF"></path><path d="M238.068802,299.248235 C241.225177,294.854755 240.222408,288.733502 235.829726,285.57535 C231.43584,282.417197 225.314495,283.420149 222.15812,287.814832 C219.001745,292.208312 220.004514,298.330769 224.3984,301.487718 C228.791082,304.644666 234.911223,303.641715 238.068802,299.248235" id="Fill-53" fill="#B8F9FF"></path><path d="M166.897361,379.578 L167.882073,378.060931 C171.340603,372.739149 177.256097,369.52802 183.602554,369.52802 L277.365671,369.52802 C283.95048,369.52802 290.053768,372.98477 293.441274,378.632842 L294.008266,379.578 L166.897361,379.578 Z" id="Fill-55" fill="#FFFFFF"></path><path d="M59.3197465,96.1052353 L59.3197465,272.058747 L394.879005,272.058747 L394.879005,96.1052353 C394.879005,90.0586319 389.977113,85.1570543 383.932812,85.1570543 L70.2659394,85.1570543 C64.220434,85.1570543 59.3197465,90.0586319 59.3197465,96.1052353" id="Fill-57" fill="#2A3958"></path><path d="M70.3713927,102.439961 L70.3713927,256.282795 C70.3713927,259.58543 73.0474497,262.260769 76.3482812,262.260769 L380.110251,262.260769 C383.411083,262.260769 386.08714,259.58543 386.08714,256.282795 L386.08714,102.439961 C386.08714,99.1385305 383.411083,96.4619874 380.110251,96.4619874 L76.3482812,96.4619874 C73.0474497,96.4619874 70.3713927,99.1385305 70.3713927,102.439961" id="Fill-59" fill="#3A5799"></path><polygon id="Fill-61" fill="#B8F9FF" points="257.371925 369.528381 202.855237 369.528381 210.269468 315.0042 249.957694 315.0042"></polygon><path d="M386.087381,121.998231 L70.3716334,121.998231 L70.3716334,101.83807 C70.3716334,98.8689497 72.7780383,96.4621078 75.7466198,96.4621078 L380.712394,96.4621078 C383.680976,96.4621078 386.087381,98.8689497 386.087381,101.83807 L386.087381,121.998231 Z" id="Fill-63" fill="#FFFFFF"></path><path d="M342.839746,109.23017 C342.839746,107.217043 341.207388,105.584388 339.194627,105.584388 C337.181866,105.584388 335.549507,107.217043 335.549507,109.23017 C335.549507,111.243296 337.181866,112.874747 339.194627,112.874747 C341.207388,112.874747 342.839746,111.243296 342.839746,109.23017" id="Fill-65" fill="#F7622A"></path><path d="M356.641123,109.23017 C356.641123,107.217043 355.009968,105.584388 352.997207,105.584388 C350.984446,105.584388 349.352087,107.217043 349.352087,109.23017 C349.352087,111.243296 350.984446,112.874747 352.997207,112.874747 C355.009968,112.874747 356.641123,111.243296 356.641123,109.23017" id="Fill-67" fill="#F7622A"></path><path d="M370.443702,109.23017 C370.443702,107.217043 368.812548,105.584388 366.799787,105.584388 C364.787026,105.584388 363.154667,107.217043 363.154667,109.23017 C363.154667,111.243296 364.787026,112.874747 366.799787,112.874747 C368.812548,112.874747 370.443702,111.243296 370.443702,109.23017" id="Fill-69" fill="#FCD740"></path><mask id="mask-4" fill="white"><use xlink:href="#path-3"></use></mask><g id="Clip-72"></g><polygon id="Fill-71" fill="#F7622A" mask="url(#mask-4)" points="92.0633451 146.936557 109.601571 146.936557 109.601571 140.515503 92.0633451 140.515503"></polygon><polygon id="Fill-73" fill="#FCD740" mask="url(#mask-4)" points="119.290992 146.936557 150.931785 146.936557 150.931785 140.515503 119.290992 140.515503"></polygon><polygon id="Fill-74" fill="#FFFFFF" mask="url(#mask-4)" points="104.108611 160.582954 169.829106 160.582954 169.829106 154.161899 104.108611 154.161899"></polygon><polygon id="Fill-75" fill="#3FC9EE" mask="url(#mask-4)" points="179.519731 160.582954 197.056753 160.582954 197.056753 154.161899 179.519731 154.161899"></polygon><polygon id="Fill-76" fill="#FFFFFF" mask="url(#mask-4)" points="104.108611 174.228147 169.829106 174.228147 169.829106 167.807092 104.108611 167.807092"></polygon><polygon id="Fill-77" fill="#3FC9EE" mask="url(#mask-4)" points="179.519731 174.228147 197.056753 174.228147 197.056753 167.807092 179.519731 167.807092"></polygon><polygon id="Fill-78" fill="#FFFFFF" mask="url(#mask-4)" points="104.108611 187.873339 169.829106 187.873339 169.829106 181.452284 104.108611 181.452284"></polygon><polygon id="Fill-79" fill="#3FC9EE" mask="url(#mask-4)" points="179.519731 187.873339 197.056753 187.873339 197.056753 181.452284 179.519731 181.452284"></polygon><polygon id="Fill-80" fill="#F7622A" mask="url(#mask-4)" points="92.0633451 201.519736 109.601571 201.519736 109.601571 195.097477 92.0633451 195.097477"></polygon><polygon id="Fill-81" fill="#FCD740" mask="url(#mask-4)" points="119.290992 201.519736 150.931785 201.519736 150.931785 195.097477 119.290992 195.097477"></polygon><polygon id="Fill-82" fill="#3FC9EE" mask="url(#mask-4)" points="104.108611 215.164928 136.968859 215.164928 136.968859 208.743874 104.108611 208.743874"></polygon><polygon id="Fill-83" fill="#FFFFFF" mask="url(#mask-4)" points="146.659484 215.164928 197.056753 215.164928 197.056753 208.743874 146.659484 208.743874"></polygon><polygon id="Fill-84" fill="#3FC9EE" mask="url(#mask-4)" points="104.108611 228.810121 136.968859 228.810121 136.968859 222.389066 104.108611 222.389066"></polygon><polygon id="Fill-85" fill="#FFFFFF" mask="url(#mask-4)" points="146.659484 228.810121 197.056753 228.810121 197.056753 222.389066 146.659484 222.389066"></polygon><polygon id="Fill-86" fill="#3FC9EE" mask="url(#mask-4)" points="104.108611 242.456517 136.968859 242.456517 136.968859 236.034259 104.108611 236.034259"></polygon><polygon id="Fill-87" fill="#FFFFFF" mask="url(#mask-4)" points="146.659484 242.456517 197.056753 242.456517 197.056753 236.034259 146.659484 236.034259"></polygon><polygon id="Fill-88" fill="#FCD740" mask="url(#mask-4)" points="257.142239 146.936557 274.679261 146.936557 274.679261 140.515503 257.142239 140.515503"></polygon><polygon id="Fill-89" fill="#F7622A" mask="url(#mask-4)" points="284.369886 146.936557 316.010679 146.936557 316.010679 140.515503 284.369886 140.515503"></polygon><polygon id="Fill-90" fill="#FFFFFF" mask="url(#mask-4)" points="269.188709 160.582954 284.369886 160.582954 284.369886 154.161899 269.188709 154.161899"></polygon><polygon id="Fill-91" fill="#3FC9EE" mask="url(#mask-4)" points="294.058103 160.582954 362.134443 160.582954 362.134443 154.161899 294.058103 154.161899"></polygon><polygon id="Fill-92" fill="#FFFFFF" mask="url(#mask-4)" points="269.188709 174.228147 284.369886 174.228147 284.369886 167.807092 269.188709 167.807092"></polygon><polygon id="Fill-93" fill="#F7622A" mask="url(#mask-4)" points="294.058103 174.228147 362.134443 174.228147 362.134443 167.807092 294.058103 167.807092"></polygon><polygon id="Fill-94" fill="#FFFFFF" mask="url(#mask-4)" points="269.188709 187.873339 284.369886 187.873339 284.369886 181.452284 269.188709 181.452284"></polygon><polygon id="Fill-95" fill="#3FC9EE" mask="url(#mask-4)" points="294.058103 187.873339 362.134443 187.873339 362.134443 181.452284 294.058103 181.452284"></polygon><polygon id="Fill-96" fill="#FCD740" mask="url(#mask-4)" points="257.142239 201.519736 274.679261 201.519736 274.679261 195.097477 257.142239 195.097477"></polygon><polygon id="Fill-97" fill="#F7622A" mask="url(#mask-4)" points="284.369886 201.519736 316.010679 201.519736 316.010679 195.097477 284.369886 195.097477"></polygon><polygon id="Fill-98" fill="#3FC9EE" mask="url(#mask-4)" points="269.187505 215.164928 323.251562 215.164928 323.251562 208.743874 269.187505 208.743874"></polygon><polygon id="Fill-99" fill="#FFFFFF" mask="url(#mask-4)" points="332.940984 215.164928 362.134443 215.164928 362.134443 208.743874 332.940984 208.743874"></polygon><polygon id="Fill-100" fill="#F7622A" mask="url(#mask-4)" points="269.187505 228.810121 323.251562 228.810121 323.251562 222.389066 269.187505 222.389066"></polygon><polygon id="Fill-101" fill="#FFFFFF" mask="url(#mask-4)" points="332.940984 228.810121 362.134443 228.810121 362.134443 222.389066 332.940984 222.389066"></polygon><polygon id="Fill-102" fill="#3FC9EE" mask="url(#mask-4)" points="269.187505 242.456517 323.251562 242.456517 323.251562 236.034259 269.187505 236.034259"></polygon><polygon id="Fill-103" fill="#FFFFFF" mask="url(#mask-4)" points="332.940984 242.456517 362.134443 242.456517 362.134443 236.034259 332.940984 236.034259"></polygon><path d="M227.099376,136.903916 L227.099376,252.835677" id="Stroke-104" stroke="#202D45" stroke-linecap="round" stroke-linejoin="round" mask="url(#mask-4)"></path><path d="M268.294403,70.4192109 C269.433202,63.0072454 273.458724,57.5313489 278.226993,57.5506132 C280.527463,57.5602454 282.644955,58.849754 284.341115,61.0133833 C286.423696,54.555004 290.502186,50.1687483 295.178965,50.1880126 C297.632319,50.1988489 299.909917,51.4233402 301.815539,53.5159322 C304.474743,47.0683891 308.919188,42.8482885 313.939052,42.8687569 C322.014172,42.9024695 328.513512,53.9000155 328.458137,67.4332339 C328.453321,68.5313029 328.401558,69.6101075 328.312476,70.6696477 L268.294403,70.4192109 Z" id="Fill-105" fill="#FFFFFF" mask="url(#mask-4)"></path><polygon id="Fill-106" fill="#F7622A" mask="url(#mask-4)" points="311.605478 76.2029761 311.664464 62.2399216 292.770755 62.1616601 292.712972 76.1247147 287.74126 76.1030422 294.91473 84.8153526 302.086997 93.528867 309.331491 84.8755537 316.57719 76.2234445"></polygon><path d="M92.0345742,368.961647 L30.243297,368.961647 C27.7911476,368.961647 25.801259,366.972601 25.801259,364.518803 L25.801259,289.739343 C25.801259,287.285544 27.7911476,285.296498 30.243297,285.296498 L92.0345742,285.296498 C94.4879274,285.296498 96.4766122,287.285544 96.4766122,289.739343 L96.4766122,364.518803 C96.4766122,366.972601 94.4879274,368.961647 92.0345742,368.961647" id="Fill-107" fill="#202D45" mask="url(#mask-4)"></path><polygon id="Fill-108" fill="#F7622A" mask="url(#mask-4)" points="41.2748397 298.920379 47.911413 298.920379 47.911413 296.186043 41.2748397 296.186043"></polygon><polygon id="Fill-109" fill="#FCD740" mask="url(#mask-4)" points="51.5782011 298.920379 63.5500353 298.920379 63.5500353 296.186043 51.5782011 296.186043"></polygon><polygon id="Fill-110" fill="#FFFFFF" mask="url(#mask-4)" points="45.8336467 304.733402 70.7006332 304.733402 70.7006332 301.999066 45.8336467 301.999066"></polygon><polygon id="Fill-111" fill="#3FC9EE" mask="url(#mask-4)" points="74.3674212 304.733402 81.0027908 304.733402 81.0027908 301.999066 74.3674212 301.999066"></polygon><polygon id="Fill-112" fill="#FFFFFF" mask="url(#mask-4)" points="45.8336467 310.546425 70.7006332 310.546425 70.7006332 307.812089 45.8336467 307.812089"></polygon><polygon id="Fill-113" fill="#3FC9EE" mask="url(#mask-4)" points="74.3674212 310.546425 81.0027908 310.546425 81.0027908 307.812089 74.3674212 307.812089"></polygon><polygon id="Fill-114" fill="#FFFFFF" mask="url(#mask-4)" points="45.8336467 316.359448 70.7006332 316.359448 70.7006332 313.625112 45.8336467 313.625112"></polygon><polygon id="Fill-115" fill="#3FC9EE" mask="url(#mask-4)" points="74.3674212 316.359448 81.0027908 316.359448 81.0027908 313.625112 74.3674212 313.625112"></polygon><polygon id="Fill-116" fill="#F7622A" mask="url(#mask-4)" points="41.2748397 322.172471 47.911413 322.172471 47.911413 319.438135 41.2748397 319.438135"></polygon><polygon id="Fill-117" fill="#FCD740" mask="url(#mask-4)" points="51.5782011 322.172471 63.5500353 322.172471 63.5500353 319.438135 51.5782011 319.438135"></polygon><polygon id="Fill-118" fill="#3FC9EE" mask="url(#mask-4)" points="45.8324429 327.986698 58.266538 327.986698 58.266538 325.252362 45.8324429 325.252362"></polygon><polygon id="Fill-119" fill="#FFFFFF" mask="url(#mask-4)" points="61.9333261 327.986698 81.0027908 327.986698 81.0027908 325.252362 61.9333261 325.252362"></polygon><polygon id="Fill-120" fill="#3FC9EE" mask="url(#mask-4)" points="45.8324429 333.799721 58.266538 333.799721 58.266538 331.065385 45.8324429 331.065385"></polygon><polygon id="Fill-121" fill="#FFFFFF" mask="url(#mask-4)" points="61.9333261 333.799721 81.0027908 333.799721 81.0027908 331.065385 61.9333261 331.065385"></polygon><polygon id="Fill-122" fill="#3FC9EE" mask="url(#mask-4)" points="45.8324429 339.612744 58.266538 339.612744 58.266538 336.878408 45.8324429 336.878408"></polygon><polygon id="Fill-123" fill="#FFFFFF" mask="url(#mask-4)" points="61.9333261 339.612744 81.0027908 339.612744 81.0027908 336.878408 61.9333261 336.878408"></polygon><polygon id="Fill-124" fill="#FCCB00" mask="url(#mask-4)" points="101.518145 379.578 20.7597264 379.578 20.7597264 323.202031 61.1389356 357.15548 101.518145 323.202031"></polygon><polygon id="Fill-125" fill="#FCD740" mask="url(#mask-4)" points="20.7597264 379.578 61.1389356 332.651204 101.518145 379.578"></polygon><path d="M353.680968,399.666642 C328.637022,399.666642 333.919315,402.074688 331.310671,411.805601 L383.227142,411.805601 C384.388813,411.805601 385.178508,410.523317 384.556142,409.540834 C381.238457,404.29009 367.06968,399.666642 353.680968,399.666642" id="Fill-126" fill="#FFFFFF" mask="url(#mask-4)"></path><path d="M339.2683,400.747132 C331.275039,400.747132 328.214968,404.835994 327.72502,410.167408 C327.643161,411.049957 328.360629,411.806083 329.246629,411.806083 L359.500639,411.806083 C359.500639,405.698074 348.063294,400.747132 339.2683,400.747132" id="Fill-127" fill="#B8F9FF" mask="url(#mask-4)"></path><path d="M351.714192,399.844115 C349.987937,399.256551 348.227975,398.900161 346.413842,398.746046 C345.642203,398.679824 345.648222,399.883847 346.416249,399.950069 C348.12204,400.094551 349.776067,400.45335 351.395184,401.005997 C352.130708,401.25523 352.443698,400.092143 351.714192,399.844115" id="Fill-128" fill="#2A3958" mask="url(#mask-4)"></path><path d="M394.878403,203.479042 C386.261571,203.479042 379.275895,196.492097 379.275895,187.8737 C379.275895,179.255304 386.261571,172.268358 394.878403,172.268358 C403.495234,172.268358 410.480911,179.255304 410.480911,187.8737 C410.480911,196.492097 403.495234,203.479042 394.878403,203.479042 L394.878403,203.479042 Z M420.852889,193.160565 L420.852889,182.588039 L414.440223,181.500807 C414.107973,180.478591 413.697476,179.491292 413.215954,178.546134 L416.981454,173.241209 L409.508237,165.766634 L404.204275,169.532818 C403.259289,169.051209 402.273373,168.641841 401.251343,168.309531 L400.164308,161.894496 L394.878403,161.894496 L389.592498,161.894496 L388.505462,168.309531 C387.483433,168.641841 386.497517,169.051209 385.55253,169.532818 L380.248568,165.766634 L372.775351,173.241209 L376.540851,178.546134 C376.059329,179.491292 375.650036,180.478591 375.317786,181.500807 L368.903916,182.588039 L368.903916,193.160565 L375.317786,194.247798 C375.650036,195.270014 376.059329,196.257312 376.540851,197.201266 L372.775351,202.506192 L380.248568,209.980766 L385.55253,206.214582 C386.497517,206.697396 387.483433,207.106764 388.505462,207.439074 L389.592498,213.852904 L394.878403,213.852904 L400.164308,213.852904 L401.251343,207.439074 C402.273373,207.106764 403.259289,206.697396 404.204275,206.214582 L409.508237,209.980766 L416.981454,202.506192 L413.215954,197.201266 C413.697476,196.257312 414.107973,195.270014 414.440223,194.247798 L420.852889,193.160565 Z" id="Fill-129" fill="#EDEDED" mask="url(#mask-4)"></path><path d="M414.449613,160.535154 C410.060542,160.535154 406.503301,156.976062 406.503301,152.587399 C406.503301,148.197531 410.060542,144.639643 414.449613,144.639643 C418.838684,144.639643 422.397129,148.197531 422.397129,152.587399 C422.397129,156.976062 418.838684,160.535154 414.449613,160.535154 L414.449613,160.535154 Z M427.678219,155.279594 L427.678219,149.895203 L424.412298,149.341353 C424.242561,148.821215 424.034303,148.317933 423.789931,147.837528 L425.707591,145.134496 L421.899958,141.327376 L419.198621,143.246588 C418.718303,143.000968 418.216317,142.792672 417.69507,142.622904 L417.14132,139.35639 L414.449613,139.35639 L411.75911,139.35639 L411.20536,142.622904 C410.684113,142.792672 410.180923,143.000968 409.700605,143.246588 L406.999268,141.327376 L403.192839,145.134496 L405.110499,147.837528 C404.866127,148.317933 404.656665,148.821215 404.488132,149.341353 L401.222211,149.895203 L401.222211,155.279594 L404.488132,155.833445 C404.656665,156.353582 404.866127,156.85566 405.110499,157.337269 L403.192839,160.039097 L406.999268,163.846218 L409.700605,161.928209 C410.180923,162.172626 410.684113,162.382126 411.20536,162.550689 L411.75911,165.818407 L414.449613,165.818407 L417.14132,165.818407 L417.69507,162.550689 C418.216317,162.382126 418.718303,162.172626 419.198621,161.928209 L421.899958,163.846218 L425.707591,160.039097 L423.789931,157.337269 C424.034303,156.85566 424.242561,156.353582 424.412298,155.833445 L427.678219,155.279594 Z" id="Fill-130" fill="#FCD740" mask="url(#mask-4)"></path><path d="M389.966761,176.968864 L395.908739,182.911922 C397.490538,184.494008 397.490538,187.059781 395.908739,188.644275 C394.324532,190.226361 391.759225,190.226361 390.176223,188.644275 L384.142755,182.609712 C381.927755,187.106738 382.681337,192.695812 386.423964,196.437916 C389.827119,199.842893 394.756698,200.768786 399.006127,199.244493 L414.759111,215.000338 C416.742981,216.985772 420.002883,217.186844 422.045739,215.262815 C424.159619,213.271361 424.198141,209.942238 422.158896,207.903827 L406.254233,191.995071 C407.77825,187.746074 406.85132,182.814396 403.448165,179.410623 C399.801842,175.763637 394.40278,174.958146 389.966761,176.968864" id="Fill-131" fill="#F7622A" mask="url(#mask-4)"></path><path d="M417.062952,210.055295 L417.062952,210.055295 C416.364745,210.753629 415.231965,210.753629 414.533759,210.055295 L404.401338,199.921034 C403.703131,199.222701 403.703131,198.089715 404.401338,197.391382 C405.099544,196.693048 406.232324,196.693048 406.930531,197.391382 L417.062952,207.526847 C417.761158,208.22518 417.761158,209.358166 417.062952,210.055295" id="Fill-132" fill="#F7622A" mask="url(#mask-4)"></path><path d="M322.198715,297.61269 L318.730555,278.589127 L346.190536,278.589127 L349.657492,297.61269 L322.198715,297.61269 Z M353.376044,272.063322 L351.582376,262.263779 L349.60934,251.438408 L341.230862,251.438408 L343.203897,262.263779 L344.660501,270.209127 L317.190889,270.209127 L315.746324,262.263779 L313.772085,251.438408 L305.380365,251.438408 L307.355808,262.263779 L308.812411,270.209127 L309.148272,272.063322 L310.340039,278.589127 L313.806995,297.61269 L315.349068,305.99269 L316.986242,314.998782 L325.364721,314.998782 L323.727547,305.99269 L351.186324,305.99269 L352.834332,314.998782 L361.21281,314.998782 L353.376044,272.063322 Z" id="Fill-133" fill="#202D45" mask="url(#mask-4)"></path><polygon id="Fill-134" fill="#FCD740" mask="url(#mask-4)" points="371.067995 379.578 379.452493 379.578 356.060167 251.432629 347.675669 251.432629"></polygon><polygon id="Fill-135" fill="#FCD740" mask="url(#mask-4)" points="335.221832 379.578 343.606329 379.578 320.215207 251.432629 311.829506 251.432629"></polygon><polygon id="Fill-136" fill="#FCD740" mask="url(#mask-4)" points="375.87611 360.805114 374.346075 352.419094 330.263964 352.419094 331.795203 360.805114"></polygon><polygon id="Fill-137" fill="#FCD740" mask="url(#mask-4)" points="370.874063 333.400708 369.344027 325.014688 325.261916 325.014688 326.793155 333.400708"></polygon><polygon id="Fill-138" fill="#FCD740" mask="url(#mask-4)" points="365.871894 305.996182 364.341859 297.608957 320.258544 297.608957 321.789783 305.996182"></polygon><polygon id="Fill-139" fill="#FCD740" mask="url(#mask-4)" points="360.868522 278.590572 359.338487 270.204551 315.256376 270.204551 316.787615 278.590572"></polygon><path d="M421.714813,335.734707 L399.750199,335.734707 C393.710712,335.734707 388.81484,340.631468 388.81484,346.672051 L388.81484,368.640655 C388.81484,374.681238 393.710712,379.578 399.750199,379.578 L421.714813,379.578 C427.754299,379.578 432.650172,374.681238 432.650172,368.640655 L432.650172,346.672051 C432.650172,340.631468 427.754299,335.734707 421.714813,335.734707" id="Fill-140" fill="#3A5799" mask="url(#mask-4)"></path><path d="M412.655704,360.006726 L407.954848,360.006726 L408.809549,355.305017 L413.510405,355.305017 L412.655704,360.006726 Z M421.348375,355.305017 C422.624408,355.305017 423.660883,354.269557 423.660883,352.992089 L423.660883,352.916235 C423.660883,351.638767 422.624408,350.602103 421.348375,350.602103 L419.065962,350.602103 L419.638973,347.452379 C419.897791,346.032836 418.80594,344.726471 417.363783,344.726471 C416.245448,344.726471 415.288424,345.525942 415.088592,346.625215 L414.365106,350.602103 L409.66425,350.602103 L410.236057,347.452379 C410.494875,346.032836 409.404228,344.726471 407.962071,344.726471 C406.843736,344.726471 405.885508,345.525942 405.685677,346.625215 L404.96219,350.602103 L400.116878,350.602103 C398.839641,350.602103 397.80437,351.638767 397.80437,352.916235 L397.80437,352.992089 C397.80437,354.269557 398.839641,355.305017 400.116878,355.305017 L404.107489,355.305017 L403.252788,360.006726 L400.116878,360.006726 C398.839641,360.006726 397.80437,361.042186 397.80437,362.320859 L397.80437,362.395508 C397.80437,363.67418 398.839641,364.708436 400.116878,364.708436 L402.398087,364.708436 L401.82628,367.859364 C401.567462,369.280111 402.658109,370.586476 404.10147,370.586476 C405.218601,370.586476 406.176829,369.787005 406.37666,368.687732 L407.100147,364.708436 L411.801003,364.708436 L411.227992,367.859364 C410.970378,369.280111 412.061024,370.586476 413.503182,370.586476 C414.621516,370.586476 415.579745,369.787005 415.779576,368.687732 L416.501859,364.708436 L421.348375,364.708436 C422.624408,364.708436 423.660883,363.67418 423.660883,362.395508 L423.660883,362.320859 C423.660883,361.042186 422.624408,360.006726 421.348375,360.006726 L417.35656,360.006726 L418.211261,355.305017 L421.348375,355.305017 Z" id="Fill-141" fill="#FFFFFF" mask="url(#mask-4)"></path><path d="M390.524002,288.553139 L399.780053,288.553139 C405.257363,288.553139 409.699401,292.99478 409.699401,298.474289 L409.699401,321.639691" id="Stroke-142" stroke="#F7622A" stroke-width="2" mask="url(#mask-4)"></path><path d="M390.524002,288.553139 C390.524002,286.004223 388.45707,283.938119 385.90982,283.938119 C383.361366,283.938119 381.294434,286.004223 381.294434,288.553139 C381.294434,291.102056 383.361366,293.168159 385.90982,293.168159 C388.45707,293.168159 390.524002,291.102056 390.524002,288.553139 Z" id="Stroke-143" stroke="#F7622A" stroke-width="2" mask="url(#mask-4)"></path><path d="M414.313222,326.611584 C414.313222,324.062667 412.247494,321.996564 409.69904,321.996564 C407.150586,321.996564 405.084858,324.062667 405.084858,326.611584 C405.084858,329.1605 407.150586,331.226604 409.69904,331.226604 C412.247494,331.226604 414.313222,329.1605 414.313222,326.611584 Z" id="Stroke-144" stroke="#F7622A" stroke-width="2" mask="url(#mask-4)"></path><path d="M146.994623,305.86687 L146.994623,356.086668 C146.994623,361.566177 142.553789,366.007818 137.075275,366.007818 L119.935509,366.007818" id="Stroke-145" stroke="#F7622A" stroke-width="2" mask="url(#mask-4)"></path><path d="M146.994623,305.86687 C149.543077,305.86687 151.608805,303.799562 151.608805,301.250645 C151.608805,298.702933 149.543077,296.635625 146.994623,296.635625 C144.446169,296.635625 142.380441,298.702933 142.380441,301.250645 C142.380441,303.799562 144.446169,305.86687 146.994623,305.86687 Z" id="Stroke-146" stroke="#F7622A" stroke-width="2" mask="url(#mask-4)"></path><path d="M114.965723,370.623079 C117.514177,370.623079 119.579905,368.556975 119.579905,366.008059 C119.579905,363.459142 117.514177,361.393039 114.965723,361.393039 C112.417269,361.393039 110.351541,363.459142 110.351541,366.008059 C110.351541,368.556975 112.417269,370.623079 114.965723,370.623079 Z" id="Stroke-147" stroke="#F7622A" stroke-width="2" mask="url(#mask-4)"></path><path d="M181.124402,26.7945684 L204.835736,26.7945684 C210.31425,26.7945684 214.755084,31.2362092 214.755084,36.7157178 L214.755084,104.458867" id="Stroke-148" stroke="#F7622A" stroke-width="2" mask="url(#mask-4)"></path><path d="M181.124402,26.7945684 C181.124402,24.2456517 179.058674,22.1795483 176.51022,22.1795483 C173.961766,22.1795483 171.894834,24.2456517 171.894834,26.7945684 C171.894834,29.3434851 173.961766,31.4095885 176.51022,31.4095885 C179.058674,31.4095885 181.124402,29.3434851 181.124402,26.7945684 Z" id="Stroke-149" stroke="#F7622A" stroke-width="2" mask="url(#mask-4)"></path><path d="M219.368664,109.430037 C219.368664,106.881121 217.302936,104.815017 214.754482,104.815017 C212.206029,104.815017 210.139096,106.881121 210.139096,109.430037 C210.139096,111.978954 212.206029,114.045057 214.754482,114.045057 C217.302936,114.045057 219.368664,111.978954 219.368664,109.430037 Z" id="Stroke-150" stroke="#F7622A" stroke-width="2" mask="url(#mask-4)"></path></g></g></g></g></svg> 